<svg width="20" height="20" xmlns="http://www.w3.org/2000/svg">

 <g>
  <title>background</title>
  <rect fill="none" id="canvas_background" height="402" width="582" y="-1" x="-1"/>
 </g>
 <g>
  <title>Layer 1</title>
  <path id="svg_1" fill="#000000" d="m6,10c0,1.1046 -0.89543,2 -2,2c-1.10457,0 -2,-0.8954 -2,-2c0,-1.10457 0.89543,-2 2,-2c1.10457,0 2,0.89543 2,2z"/>
  <path id="svg_2" fill="#000000" d="m12,10c0,1.1046 -0.8954,2 -2,2c-1.10457,0 -2,-0.8954 -2,-2c0,-1.10457 0.89543,-2 2,-2c1.1046,0 2,0.89543 2,2z"/>
  <path id="svg_3" fill="#000000" d="m16,12c1.1046,0 2,-0.8954 2,-2c0,-1.10457 -0.8954,-2 -2,-2c-1.1046,0 -2,0.89543 -2,2c0,1.1046 0.8954,2 2,2z"/>
 </g>
</svg>